<svg width="52" height="52" viewBox="0 0 52 52" fill="none" xmlns="http://www.w3.org/2000/svg">
<path fill-rule="evenodd" clip-rule="evenodd" d="M40.3048 23.2136L41.3045 18.3477L36.1772 19.0528L37.7358 20.6239L28.8781 28.7417L22.0974 21.6867L10.6933 32.1382L11.7588 33.2038L22.0291 23.7914L28.8098 30.8463L38.7968 21.6935L40.3048 23.2136Z" fill="#DF5759"/>
<path d="M41.3047 18.3462L41.7853 18.4449L41.9248 17.7656L41.2379 17.8601L41.3047 18.3462ZM40.305 23.2121L39.9567 23.5576L40.6013 24.2073L40.7855 23.3108L40.305 23.2121ZM36.1774 19.0513L36.1106 18.5653L35.1371 18.6992L35.8292 19.3968L36.1774 19.0513ZM37.7359 20.6224L38.0675 20.984L38.4437 20.6393L38.0842 20.2769L37.7359 20.6224ZM28.8783 28.7402L28.5246 29.08L28.8566 29.4255L29.2097 29.1018L28.8783 28.7402ZM22.0976 21.6852L22.4513 21.3453L22.1193 20.9999L21.7661 21.3235L22.0976 21.6852ZM10.6935 32.1367L10.3621 31.775L9.98431 32.1212L10.3465 32.4835L10.6935 32.1367ZM11.759 33.2023L11.4121 33.5491L11.7441 33.8813L12.0904 33.5639L11.759 33.2023ZM22.0293 23.7899L22.383 23.45L22.051 23.1046L21.6978 23.4282L22.0293 23.7899ZM28.81 30.8448L28.4563 31.1848L28.7882 31.5301L29.1414 31.2065L28.81 30.8448ZM38.797 21.692L39.1453 21.3466L38.8132 21.0118L38.4656 21.3304L38.797 21.692ZM40.8242 18.2474L39.8245 23.1134L40.7855 23.3108L41.7853 18.4449L40.8242 18.2474ZM36.2443 19.5373L41.3716 18.8321L41.2379 17.8601L36.1106 18.5653L36.2443 19.5373ZM38.0842 20.2769L36.5257 18.7058L35.8292 19.3968L37.3877 20.9678L38.0842 20.2769ZM29.2097 29.1018L38.0675 20.984L37.4045 20.2607L28.5468 28.3784L29.2097 29.1018ZM21.7439 22.0251L28.5246 29.08L29.232 28.4002L22.4513 21.3453L21.7439 22.0251ZM11.025 32.4983L22.4291 22.0469L21.7661 21.3235L10.3621 31.775L11.025 32.4983ZM12.1058 32.8554L11.0404 31.7898L10.3465 32.4835L11.4121 33.5491L12.1058 32.8554ZM21.6978 23.4282L11.4275 32.8406L12.0904 33.5639L22.3607 24.1516L21.6978 23.4282ZM29.1636 30.5049L22.383 23.45L21.6756 24.1298L28.4563 31.1848L29.1636 30.5049ZM38.4656 21.3304L28.4785 30.4832L29.1414 31.2065L39.1285 22.0537L38.4656 21.3304ZM40.6532 22.8666L39.1453 21.3466L38.4488 22.0375L39.9567 23.5576L40.6532 22.8666Z" fill="#DF5759"/>
</svg>
