<svg width="52" height="52" viewBox="0 0 52 52" fill="none" xmlns="http://www.w3.org/2000/svg">
<path fill-rule="evenodd" clip-rule="evenodd" d="M21.6895 13.3418C21.8606 13.7338 21.6815 14.1902 21.2896 14.3613C15.7705 16.7703 12.5356 22.5658 13.3817 28.5294C14.2278 34.4929 18.9469 39.1594 24.918 39.9375C30.8891 40.7155 36.6459 37.4141 38.9912 31.8665C39.1578 31.4726 39.6121 31.2882 40.006 31.4548C40.4 31.6213 40.5843 32.0756 40.4178 32.4696C37.8015 38.6581 31.3794 42.3413 24.7179 41.4733C18.0564 40.6052 12.7921 35.3993 11.8483 28.7469C10.9045 22.0945 14.513 15.6293 20.67 12.9418C21.0619 12.7708 21.5184 12.9498 21.6895 13.3418Z" fill="#DF5759" stroke="#DF5759" stroke-width="0.5" stroke-linecap="round" stroke-linejoin="round"/>
<path fill-rule="evenodd" clip-rule="evenodd" d="M26.1018 11.926C26.247 11.7807 26.444 11.6992 26.6494 11.6992C30.6142 11.6992 34.4166 13.2745 37.22 16.0787C40.0235 18.8828 41.5984 22.686 41.5984 26.6515C41.5984 27.0792 41.2517 27.4259 40.8241 27.4259H26.6494C26.2217 27.4259 25.875 27.0792 25.875 26.6515V12.4735C25.875 12.2682 25.9566 12.0712 26.1018 11.926ZM27.4238 13.2703V25.8772H40.0273C39.8381 22.6046 38.4547 19.5042 36.1247 17.1737C33.7948 14.8432 30.6953 13.4596 27.4238 13.2703Z" fill="#DF5759" stroke="#DF5759" stroke-width="0.5" stroke-linecap="round" stroke-linejoin="round"/>
</svg>
