<svg width="53" height="52" viewBox="0 0 53 52" fill="none" xmlns="http://www.w3.org/2000/svg">
<path d="M25.0329 13.1587C25.8091 11.9888 27.527 11.9888 28.3032 13.1587L31.5717 18.0849C31.8325 18.478 32.226 18.7639 32.6803 18.8905L38.3756 20.4766C39.728 20.8534 40.2588 22.4871 39.3861 23.5868L35.7109 28.2178C35.4177 28.5872 35.2674 29.0498 35.2874 29.5209L35.5388 35.4276C35.5985 36.8303 34.2087 37.84 32.8931 37.3499L27.3532 35.2856C26.9112 35.1209 26.4248 35.1209 25.9829 35.2856L20.4429 37.3499C19.1274 37.84 17.7376 36.8303 17.7973 35.4276L18.0486 29.5209C18.0687 29.0498 17.9184 28.5872 17.6251 28.2178L13.95 23.5868C13.0773 22.4871 13.6081 20.8534 14.9605 20.4766L20.6558 18.8905C21.1101 18.7639 21.5036 18.478 21.7644 18.0849L25.0329 13.1587Z" stroke="#DF5759" stroke-width="1.96226"/>
</svg>
