<svg width="53" height="52" viewBox="0 0 53 52" fill="none" xmlns="http://www.w3.org/2000/svg">
<path d="M22.7687 15.0668C22.7687 17.0755 24.3971 18.7039 26.4058 18.7039C28.4145 18.7039 30.0429 17.0755 30.0429 15.0668C30.0429 13.0581 28.4145 11.4297 26.4058 11.4297C24.3971 11.4297 22.7687 13.0581 22.7687 15.0668Z" stroke="#DF5759" stroke-width="1.4717"/>
<path d="M26.4065 40.569C24.3979 40.569 22.7695 38.9407 22.7695 36.932C22.7695 34.9233 24.3979 33.2949 26.4065 33.2949C28.4153 33.2949 30.0437 34.9233 30.0437 36.932C30.0437 38.9407 28.4153 40.569 26.4065 40.569Z" stroke="#DF5759" stroke-width="1.4717"/>
<path d="M26.4061 19.4396V34.016" stroke="#DF5759" stroke-width="1.4717"/>
<path d="M15.3948 29.9832C17.4035 29.9832 19.0319 28.3548 19.0319 26.3461C19.0319 24.3374 17.4035 22.709 15.3948 22.709C13.3861 22.709 11.7578 24.3374 11.7578 26.3461C11.7578 28.3548 13.3861 29.9832 15.3948 29.9832Z" stroke="#DF5759" stroke-width="1.4717"/>
<path d="M37.2601 29.9832C39.2688 29.9832 40.8972 28.3548 40.8972 26.3461C40.8972 24.3374 39.2688 22.709 37.2601 22.709C35.2514 22.709 33.623 24.3374 33.623 26.3461C33.623 28.3548 35.2514 29.9832 37.2601 29.9832Z" stroke="#DF5759" stroke-width="1.4717"/>
<path d="M19.7695 26.3457H34.346" stroke="#DF5759" stroke-width="1.4717"/>
</svg>
