<svg width="52" height="52" viewBox="0 0 52 52" fill="none" xmlns="http://www.w3.org/2000/svg">
<path fill-rule="evenodd" clip-rule="evenodd" d="M40.942 25.8148C40.4805 25.9445 40.0012 25.6756 39.8714 25.2141C38.0444 18.7162 32.1064 14.2342 25.355 14.2576C18.6036 14.281 12.6975 18.8039 10.9164 25.3143C10.7899 25.7767 10.3125 26.049 9.85012 25.9225C9.38772 25.796 9.11543 25.3186 9.24192 24.8562C11.2289 17.5931 17.8177 12.5477 25.349 12.5216C32.8802 12.4955 39.5045 17.4952 41.5426 24.7442C41.6724 25.2057 41.4035 25.685 40.942 25.8148Z" fill="#DF5759" stroke="#DF5759" stroke-width="0.2" stroke-linecap="round" stroke-linejoin="round"/>
<path fill-rule="evenodd" clip-rule="evenodd" d="M39.8066 25.0286C35.5654 23.0713 31.7005 24.2332 30.3845 24.9923L30.0155 25.2052L29.6213 25.0435C25.342 23.288 21.8406 24.3431 20.7379 24.9893L20.3269 25.2302L19.9029 25.0129C18.2771 24.1792 16.3711 23.9873 14.5994 24.1164C12.8303 24.2454 11.2736 24.6888 10.4088 25.0435L9.75 23.4374C10.7778 23.0158 12.5139 22.5278 14.4732 22.385C16.2969 22.2521 18.3821 22.4136 20.2828 23.2698C22.0165 22.4491 25.6453 21.6716 29.8986 23.2867C31.8304 22.3444 36.0166 21.3676 40.5341 23.4523L39.8066 25.0286Z" fill="#DF5759" stroke="#DF5759" stroke-width="0.2"/>
<path fill-rule="evenodd" clip-rule="evenodd" d="M23.9648 37.9047V26.2066C23.9648 25.7592 24.3276 25.3965 24.775 25.3965C25.2224 25.3965 25.5851 25.7592 25.5851 26.2066V37.9047C25.5851 39.3097 26.8411 40.1667 28.0828 40.2523C28.6928 40.2943 29.2617 40.1467 29.6787 39.8114C29.9651 39.581 30.222 39.2277 30.3534 38.7075C30.463 38.2737 30.8087 37.9047 31.2561 37.9047C31.7035 37.9047 32.0762 38.2705 31.9973 38.7109C31.8416 39.5795 31.4275 40.2742 30.8082 40.7723C30.01 41.4141 28.9586 41.6574 27.9483 41.5878C25.9495 41.45 23.9648 40.0734 23.9648 37.9047Z" fill="#DF5759" stroke="#DF5759" stroke-width="0.2"/>
</svg>
