<svg width="53" height="52" viewBox="0 0 53 52" fill="none" xmlns="http://www.w3.org/2000/svg">
<path fill-rule="evenodd" clip-rule="evenodd" d="M25.0377 39.5735C26.2067 39.9402 27.3757 40.0869 28.5446 40.0869C31.2074 40.0869 33.7403 39.3534 36.0134 37.8129L40.9492 34.5119C41.9234 33.8518 42.2481 30.7574 41.7285 29.6571C41.209 28.41 39.9101 27.8965 38.871 28.4834L32.6363 31.711C32.2466 31.931 31.7919 31.931 31.3373 31.7844L31.0126 31.6377C31.2724 31.3442 31.5322 30.9775 31.6621 30.5373C32.0517 29.2169 31.4023 27.7498 30.2333 27.3097L24.9727 25.3291C22.8296 24.5222 20.4266 24.5956 18.3483 25.6226L16.8546 26.3561C16.5948 26.4294 16.465 26.7229 16.465 27.0163V35.2455C16.465 36.4925 17.2443 37.5195 18.2834 37.7395L25.0377 39.5735ZM17.764 35.2457V27.53L18.7382 26.7964C20.5567 25.9161 22.5699 25.7694 24.4533 26.5029L29.7139 28.4835C30.1685 28.7036 30.4283 29.2171 30.3634 29.8039V29.9506C30.2335 30.5374 29.6489 30.9043 29.1294 30.6842L25.0379 29.1437C24.7131 28.9971 24.3234 29.2171 24.1936 29.5839C24.0637 29.9506 24.2585 30.3908 24.5832 30.5374L30.8179 33.1049C31.5973 33.4717 32.4416 33.3983 33.156 33.0316L39.3907 29.8039C39.8453 29.5839 40.3649 29.8039 40.5597 30.3174C40.7545 30.7575 40.6246 33.045 40.235 33.2651L35.2992 36.566C32.3117 38.62 28.7397 39.2068 25.3625 38.2532L18.6083 36.3459C18.0887 36.2726 17.764 35.7591 17.764 35.2457Z" fill="#DF5759"/>
<path fill-rule="evenodd" clip-rule="evenodd" d="M12.0721 38.7265H17.0322C17.4573 38.7265 17.7407 38.4204 17.7407 37.9612V25.5465C17.7407 25.0874 17.4573 24.7812 17.0322 24.7812H12.0721C11.6468 24.7812 11.3634 25.0874 11.3634 25.5465V37.9612C11.3634 38.4204 11.6468 38.7265 12.0721 38.7265ZM16.3233 37.1955H12.7803V26.3115H16.3233V37.1955Z" fill="#DF5759"/>
<path d="M36.4728 17.7383C36.4728 21.3572 33.5391 24.291 29.9201 24.291C26.3011 24.291 23.3673 21.3572 23.3673 17.7383C23.3673 14.1193 26.3011 11.1855 29.9201 11.1855C33.5391 11.1855 36.4728 14.1193 36.4728 17.7383Z" stroke="#DF5759" stroke-width="0.981132"/>
<path d="M32.07 16.2352H31.5363C31.5011 15.93 31.3934 15.6443 31.2225 15.4231H32.0699C32.2729 15.4231 32.4373 15.2735 32.4373 15.0732C32.4373 14.8729 32.2729 14.7191 32.0699 14.7191H29.1961C29.1856 14.7191 29.1755 14.7188 29.1647 14.7188C29.1577 14.7188 29.1507 14.7191 29.1437 14.7191H27.7737C27.5708 14.7191 27.4064 14.873 27.4064 15.0732C27.4064 15.2735 27.5708 15.4231 27.7737 15.4231H29.403C29.9175 15.4601 30.4565 15.6566 30.5984 16.2352H27.7737C27.5708 16.2352 27.4064 16.3976 27.4064 16.598C27.4064 16.7983 27.5708 16.9607 27.7737 16.9607H30.5618C30.3883 17.418 29.9119 17.697 29.2497 17.697H28.5191H28.5169H28.0908C27.8929 17.697 27.7325 17.8553 27.7325 18.0506C27.7325 18.246 27.8929 18.4044 28.0908 18.4044H28.5118L28.5169 18.4054H29.1817C29.9041 18.4324 30.2254 18.7416 30.4096 19.5875C30.5537 20.2158 30.6599 20.6251 30.7434 20.8702C30.8059 21.097 30.9296 21.4386 31.1443 21.6427C31.2283 21.7224 31.3366 21.762 31.4444 21.762C31.558 21.762 31.6715 21.7182 31.7566 21.631C31.9123 21.4712 31.9152 21.2239 31.7724 21.0587C31.7718 21.0568 31.772 21.0546 31.771 21.0526C31.6393 20.8114 31.4798 20.1641 31.2854 19.3432C31.1307 18.6757 30.8419 18.2599 30.4043 18.0753C30.9538 17.8671 31.3319 17.4689 31.48 16.9606H32.0699C32.2729 16.9606 32.4373 16.7982 32.4373 16.5979C32.4373 16.3976 32.273 16.2352 32.07 16.2352Z" fill="#DF5759"/>
</svg>
